{
  "accessors": [
    {
      "bufferView": 2,
      "componentType": 5126,
      "count": 180,
      "max": [
        0.1721518337726593,
        0.17215152084827423,
        -1.353786587715149
      ],
      "min": [
        -0.1721518337726593,
        -0.17215214669704437,
        -1.4179484844207764
      ],
      "type": "VEC3"
    },
    {
      "bufferView": 2,
      "byteOffset": 2160,
      "componentType": 5126,
      "count": 180,
      "max": [
        0.9807853698730469,
        0.9807854294776917,
        1.0
      ],
      "min": [
        -0.9807853698730469,
        -0.9807853698730469,
        -1.0
      ],
      "type": "VEC3"
    },
    {
      "bufferView": 1,
      "componentType": 5126,
      "count": 180,
      "max": [
        1.000000238418579,
        0.06250017881393433
      ],
      "min": [
        0.0,
        0.0
      ],
      "type": "VEC2"
    },
    {
      "bufferView": 0,
      "componentType": 5125,
      "count": 288,
      "type": "SCALAR"
    },
    {
      "bufferView": 2,
      "byteOffset": 4320,
      "componentType": 5126,
      "count": 83,
      "max": [
        0.20890967547893524,
        0.20890937745571136,
        -1.1023963689804077
      ],
      "min": [
        -0.20890967547893524,
        -0.20890997350215912,
        -1.1542599201202393
      ],
      "type": "VEC3"
    },
    {
      "bufferView": 2,
      "byteOffset": 5316,
      "componentType": 5126,
      "count": 83,
      "max": [
        0.7462007999420166,
        0.7462007999420166,
        1.0
      ],
      "min": [
        -0.7462007999420166,
        -0.7462007999420166,
        -1.0
      ],
      "type": "VEC3"
    },
    {
      "bufferView": 1,
      "byteOffset": 1440,
      "componentType": 5126,
      "count": 83,
      "max": [
        1.000000238418579,
        0.06250017881393433
      ],
      "min": [
        0.0,
        0.0
      ],
      "type": "VEC2"
    },
    {
      "bufferView": 0,
      "byteOffset": 1152,
      "componentType": 5125,
      "count": 288,
      "type": "SCALAR"
    },
    {
      "bufferView": 2,
      "byteOffset": 6312,
      "componentType": 5126,
      "count": 60,
      "max": [
        1.2299413681030273,
        0.09207701683044434,
        1.386264681816101
      ],
      "min": [
        -1.2206898927688599,
        -2.363041877746582,
        0.10045677423477173
      ],
      "type": "VEC3"
    },
    {
      "bufferView": 2,
      "byteOffset": 7032,
      "componentType": 5126,
      "count": 60,
      "max": [
        0.9696165323257446,
        0.9821760654449463,
        -0.17496667802333832
      ],
      "min": [
        -0.9839745759963989,
        -0.9749926328659058,
        -0.17496705055236816
      ],
      "type": "VEC3"
    },
    {
      "bufferView": 1,
      "byteOffset": 2104,
      "componentType": 5126,
      "count": 60,
      "max": [
        1.0,
        1.0
      ],
      "min": [
        0.044444501399993896,
        0.5
      ],
      "type": "VEC2"
    },
    {
      "bufferView": 0,
      "byteOffset": 2304,
      "componentType": 5125,
      "count": 90,
      "type": "SCALAR"
    },
    {
      "bufferView": 2,
      "byteOffset": 7752,
      "componentType": 5126,
      "count": 164,
      "max": [
        0.9137349724769592,
        0.9137349724769592,
        0.7191392183303833
      ],
      "min": [
        -0.9137349724769592,
        -0.9137349724769592,
        -0.6839087009429932
      ],
      "type": "VEC3"
    },
    {
      "bufferView": 2,
      "byteOffset": 9720,
      "componentType": 5126,
      "count": 164,
      "max": [
        1.0,
        1.0,
        1.0
      ],
      "min": [
        -1.0,
        -1.0,
        -1.0
      ],
      "type": "VEC3"
    },
    {
      "bufferView": 1,
      "byteOffset": 2584,
      "componentType": 5126,
      "count": 164,
      "max": [
        0.625,
        1.0008153915405273
      ],
      "min": [
        0.0,
        -0.000815544044598937
      ],
      "type": "VEC2"
    },
    {
      "bufferView": 0,
      "byteOffset": 2664,
      "componentType": 5125,
      "count": 246,
      "type": "SCALAR"
    },
    {
      "bufferView": 2,
      "byteOffset": 11688,
      "componentType": 5126,
      "count": 96,
      "max": [
        34.82472610473633,
        68.95148468017578,
        1.0000001192092896
      ],
      "min": [
        -35.42874526977539,
        -1.0,
        -1.0
      ],
      "type": "VEC3"
    },
    {
      "bufferView": 2,
      "byteOffset": 12840,
      "componentType": 5126,
      "count": 96,
      "max": [
        0.7027261853218079,
        0.7027269005775452,
        1.0
      ],
      "min": [
        -0.7027255296707153,
        -0.7027262449264526,
        -1.0
      ],
      "type": "VEC3"
    },
    {
      "bufferView": 1,
      "byteOffset": 3896,
      "componentType": 5126,
      "count": 96,
      "max": [
        1.0,
        1.0
      ],
      "min": [
        0.0,
        0.01000000536441803
      ],
      "type": "VEC2"
    },
    {
      "bufferView": 0,
      "byteOffset": 3648,
      "componentType": 5125,
      "count": 144,
      "type": "SCALAR"
    },
    {
      "bufferView": 2,
      "byteOffset": 13992,
      "componentType": 5126,
      "count": 583,
      "max": [
        1.0577515363693237,
        1.057751178741455,
        0.9807853102684021
      ],
      "min": [
        -1.0577512979507446,
        -1.0577516555786133,
        -1.1023963689804077
      ],
      "type": "VEC3"
    },
    {
      "bufferView": 2,
      "byteOffset": 20988,
      "componentType": 5126,
      "count": 583,
      "max": [
        1.0,
        1.0,
        1.0
      ],
      "min": [
        -1.0,
        -1.0,
        -0.8679801225662231
      ],
      "type": "VEC3"
    },
    {
      "bufferView": 1,
      "byteOffset": 4664,
      "componentType": 5126,
      "count": 583,
      "max": [
        1.000000238418579,
        0.9375000596046448
      ],
      "min": [
        0.0,
        0.06249988079071045
      ],
      "type": "VEC2"
    },
    {
      "bufferView": 0,
      "byteOffset": 4224,
      "componentType": 5125,
      "count": 1440,
      "type": "SCALAR"
    },
    {
      "bufferView": 2,
      "byteOffset": 27984,
      "componentType": 5126,
      "count": 404,
      "max": [
        0.9155538082122803,
        0.9155535101890564,
        0.9807853102684021
      ],
      "min": [
        -0.9155536890029907,
        -0.9155540466308594,
        -1.1023963689804077
      ],
      "type": "VEC3"
    },
    {
      "bufferView": 2,
      "byteOffset": 32832,
      "componentType": 5126,
      "count": 404,
      "max": [
        0.9825008511543274,
        0.9825008511543274,
        0.961564302444458
      ],
      "min": [
        -0.9825008511543274,
        -0.9825008511543274,
        -0.8679808378219604
      ],
      "type": "VEC3"
    },
    {
      "bufferView": 1,
      "byteOffset": 9328,
      "componentType": 5126,
      "count": 404,
      "max": [
        1.000000238418579,
        0.9375000596046448
      ],
      "min": [
        8.940696716308594e-08,
        0.06249988079071045
      ],
      "type": "VEC2"
    },
    {
      "bufferView": 0,
      "byteOffset": 9984,
      "componentType": 5125,
      "count": 1536,
      "type": "SCALAR"
    }
  ],
  "asset": {
    "extras": {
      "author": "protima (https://sketchfab.com/protima)",
      "license": "CC-BY-4.0 (http://creativecommons.org/licenses/by/4.0/)",
      "source": "https://sketchfab.com/3d-models/hot-air-balloon-7dc8c30e10cc46a1a052e7a30cab8a83",
      "title": "Hot Air Balloon"
    },
    "generator": "Sketchfab-10.59.0",
    "version": "2.0"
  },
  "bufferViews": [
    {
      "buffer": 0,
      "byteLength": 16128,
      "name": "floatBufferViews",
      "target": 34963
    },
    {
      "buffer": 0,
      "byteLength": 12560,
      "byteOffset": 16128,
      "byteStride": 8,
      "name": "floatBufferViews",
      "target": 34962
    },
    {
      "buffer": 0,
      "byteLength": 37680,
      "byteOffset": 28688,
      "byteStride": 12,
      "name": "floatBufferViews",
      "target": 34962
    }
  ],
  "buffers": [
    {
      "byteLength": 66368,
      "uri": "scene.bin"
    }
  ],
  "materials": [
    {
      "doubleSided": true,
      "name": "Material.010",
      "pbrMetallicRoughness": {
        "baseColorFactor": [
          0.8,
          0.262215,
          0.016379,
          1.0
        ],
        "metallicFactor": 0.0,
        "roughnessFactor": 0.9197701645454485
      }
    },
    {
      "doubleSided": true,
      "name": "Material.009",
      "pbrMetallicRoughness": {
        "baseColorFactor": [
          1.0,
          0.290768,
          0.00534605,
          1.0
        ],
        "metallicFactor": 0.0,
        "roughnessFactor": 0.905874225952498
      }
    },
    {
      "doubleSided": true,
      "name": "Material.011",
      "pbrMetallicRoughness": {
        "baseColorFactor": [
          0.0637205,
          0.0637205,
          0.0637205,
          1.0
        ],
        "metallicFactor": 0.0,
        "roughnessFactor": 0.9857516630439724
      }
    },
    {
      "doubleSided": true,
      "name": "Material.013",
      "pbrMetallicRoughness": {
        "baseColorFactor": [
          0.438543,
          0.153559,
          0.0118443,
          1.0
        ],
        "metallicFactor": 0.0,
        "roughnessFactor": 0.9544032652155766
      }
    },
    {
      "doubleSided": true,
      "name": "Material.012",
      "pbrMetallicRoughness": {
        "baseColorFactor": [
          0.0800114,
          0.0272741,
          0.00442525,
          1.0
        ],
        "metallicFactor": 0.0,
        "roughnessFactor": 0.9917631388265781
      }
    },
    {
      "doubleSided": true,
      "name": "material_0",
      "pbrMetallicRoughness": {
        "baseColorFactor": [
          0.8,
          0.10028,
          0.320053,
          1.0
        ],
        "metallicFactor": 0.0,
        "roughnessFactor": 0.940764751951727
      }
    },
    {
      "doubleSided": true,
      "name": "Material.008",
      "pbrMetallicRoughness": {
        "baseColorFactor": [
          0.8,
          0.8,
          0.8,
          1.0
        ],
        "metallicFactor": 0.0,
        "roughnessFactor": 0.8211145618000169
      }
    }
  ],
  "meshes": [
    {
      "name": "Sphere.001_Material.010_0",
      "primitives": [
        {
          "attributes": {
            "NORMAL": 1,
            "POSITION": 0,
            "TEXCOORD_0": 2
          },
          "indices": 3,
          "material": 0,
          "mode": 4
        }
      ]
    },
    {
      "name": "Sphere.002_Material.009_0",
      "primitives": [
        {
          "attributes": {
            "NORMAL": 5,
            "POSITION": 4,
            "TEXCOORD_0": 6
          },
          "indices": 7,
          "material": 1,
          "mode": 4
        }
      ]
    },
    {
      "name": "Cylinder_Material.011_0",
      "primitives": [
        {
          "attributes": {
            "NORMAL": 9,
            "POSITION": 8,
            "TEXCOORD_0": 10
          },
          "indices": 11,
          "material": 2,
          "mode": 4
        }
      ]
    },
    {
      "name": "Cube_Material.013_0",
      "primitives": [
        {
          "attributes": {
            "NORMAL": 13,
            "POSITION": 12,
            "TEXCOORD_0": 14
          },
          "indices": 15,
          "material": 3,
          "mode": 4
        }
      ]
    },
    {
      "name": "Cylinder.001_Material.012_0",
      "primitives": [
        {
          "attributes": {
            "NORMAL": 17,
            "POSITION": 16,
            "TEXCOORD_0": 18
          },
          "indices": 19,
          "material": 4,
          "mode": 4
        }
      ]
    },
    {
      "name": "Sphere.003_Material.007_0",
      "primitives": [
        {
          "attributes": {
            "NORMAL": 21,
            "POSITION": 20,
            "TEXCOORD_0": 22
          },
          "indices": 23,
          "material": 5,
          "mode": 4
        }
      ]
    },
    {
      "name": "Sphere.004_Material.008_0",
      "primitives": [
        {
          "attributes": {
            "NORMAL": 25,
            "POSITION": 24,
            "TEXCOORD_0": 26
          },
          "indices": 27,
          "material": 6,
          "mode": 4
        }
      ]
    }
  ],
  "nodes": [
    {
      "children": [
        1
      ],
      "matrix": [
        1.0,
        0.0,
        0.0,
        0.0,
        0.0,
        2.220446049250313e-16,
        -1.0,
        0.0,
        0.0,
        1.0,
        2.220446049250313e-16,
        0.0,
        0.0,
        -6.924760327819968e-06,
        -9.86518216450351e-07,
        1.0
      ],
      "name": "Sketchfab_model"
    },
    {
      "children": [
        2
      ],
      "matrix": [
        1.0,
        0.0,
        0.0,
        0.0,
        0.0,
        0.0,
        1.0,
        0.0,
        0.0,
        -1.0,
        0.0,
        0.0,
        0.0,
        0.0,
        0.0,
        1.0
      ],
      "name": "201a1183c86342cd944effa875d3eaa1.fbx"
    },
    {
      "children": [
        3,
        6,
        8,
        10,
        12,
        14,
        16,
        18,
        20,
        22,
        25,
        28
      ],
      "name": "RootNode"
    },
    {
      "children": [
        4
      ],
      "matrix": [
        0.6676457716730977,
        29.59790995960899,
        -95.5171082850944,
        0.0,
        65.90964224954878,
        -71.96507831155222,
        -21.83914119253817,
        0.0,
        -75.20287964936797,
        -62.80916667115915,
        -19.988345320170513,
        0.0,
        407.6245422363281,
        388.1775207519531,
        -100.54539489746094,
        1.0
      ],
      "name": "Light"
    },
    {
      "children": [
        5
      ],
      "matrix": [
        1.0,
        0.0,
        0.0,
        0.0,
        0.0,
        2.220446049250313e-16,
        1.0,
        0.0,
        0.0,
        -1.0,
        2.220446049250313e-16,
        0.0,
        0.0,
        0.0,
        0.0,
        1.0
      ],
      "name": "Object_4"
    },
    {
      "name": "Object_5"
    },
    {
      "children": [
        7
      ],
      "matrix": [
        -65.15583280329096,
        -44.52713576570858,
        -61.41703047373549,
        0.0,
        -32.40134137821245,
        89.53957451233616,
        -30.542088974418615,
        0.0,
        68.59205472129975,
        -1.0718647115348782e-05,
        -72.7676336239627,
        0.0,
        735.88916015625,
        495.8309326171875,
        692.5791015625,
        1.0
      ],
      "name": "Camera"
    },
    {
      "name": "Object_7"
    },
    {
      "children": [
        9
      ],
      "matrix": [
        100.0,
        0.0,
        0.0,
        0.0,
        0.0,
        -1.629206793918314e-05,
        -99.99999999999868,
        0.0,
        0.0,
        99.99999999999868,
        -1.629206793918314e-05,
        0.0,
        0.0,
        201.5675811767578,
        0.0,
        1.0
      ],
      "name": "Sphere.001"
    },
    {
      "mesh": 0,
      "name": "Sphere.001_Material.010_0"
    },
    {
      "children": [
        11
      ],
      "matrix": [
        100.0,
        0.0,
        0.0,
        0.0,
        0.0,
        -1.629206793918314e-05,
        -99.99999999999868,
        0.0,
        0.0,
        99.99999999999868,
        -1.629206793918314e-05,
        0.0,
        0.0,
        201.5675811767578,
        0.0,
        1.0
      ],
      "name": "Sphere.002"
    },
    {
      "mesh": 1,
      "name": "Sphere.002_Material.009_0"
    },
    {
      "children": [
        13
      ],
      "matrix": [
        15.977278709411621,
        0.0,
        0.0,
        0.0,
        0.0,
        -2.6030291021699845e-06,
        -15.97727870941141,
        0.0,
        0.0,
        19.28003883361791,
        -3.141117025473964e-06,
        0.0,
        0.0,
        60.797889709472656,
        -18.123519897460938,
        1.0
      ],
      "name": "Cylinder"
    },
    {
      "mesh": 2,
      "name": "Cylinder_Material.011_0"
    },
    {
      "children": [
        15
      ],
      "matrix": [
        24.283451080322266,
        0.0,
        0.0,
        0.0,
        0.0,
        -3.956276347984406e-06,
        -24.283451080321946,
        0.0,
        0.0,
        24.283451080321946,
        -3.956276347984406e-06,
        0.0,
        0.0,
        0.0,
        0.0,
        1.0
      ],
      "name": "Cube"
    },
    {
      "mesh": 3,
      "name": "Cube_Material.013_0"
    },
    {
      "children": [
        17
      ],
      "matrix": [
        0.5921720266342163,
        0.0,
        0.0,
        0.0,
        0.0,
        -9.647706889608421e-08,
        -0.5921720266342085,
        0.0,
        0.0,
        23.686325073241875,
        -3.858992173228388e-06,
        0.0,
        0.0,
        40.09527587890625,
        20.20890235900879,
        1.0
      ],
      "name": "Cylinder.001"
    },
    {
      "mesh": 4,
      "name": "Cylinder.001_Material.012_0"
    },
    {
      "children": [
        19
      ],
      "matrix": [
        100.0,
        0.0,
        0.0,
        0.0,
        0.0,
        -1.629206793918314e-05,
        -99.99999999999868,
        0.0,
        0.0,
        99.99999999999868,
        -1.629206793918314e-05,
        0.0,
        0.0,
        201.5675811767578,
        0.0,
        1.0
      ],
      "name": "Sphere.003"
    },
    {
      "mesh": 5,
      "name": "Sphere.003_Material.007_0"
    },
    {
      "children": [
        21
      ],
      "matrix": [
        100.0,
        0.0,
        0.0,
        0.0,
        0.0,
        -1.629206793918314e-05,
        -99.99999999999868,
        0.0,
        0.0,
        99.99999999999868,
        -1.629206793918314e-05,
        0.0,
        0.0,
        201.5675811767578,
        0.0,
        1.0
      ],
      "name": "Sphere.004"
    },
    {
      "mesh": 6,
      "name": "Sphere.004_Material.008_0"
    },
    {
      "children": [
        23
      ],
      "matrix": [
        838.574951171875,
        0.0,
        0.0,
        0.0,
        0.0,
        -0.00013662120076589373,
        838.574951171864,
        0.0,
        0.0,
        -838.574951171864,
        -0.00013662120076589373,
        0.0,
        -1.0604887736194446e-13,
        198.3011474609375,
        439.81781005859375,
        1.0
      ],
      "name": "Area"
    },
    {
      "children": [
        24
      ],
      "matrix": [
        1.0,
        0.0,
        0.0,
        0.0,
        0.0,
        2.220446049250313e-16,
        1.0,
        0.0,
        0.0,
        -1.0,
        2.220446049250313e-16,
        0.0,
        0.0,
        0.0,
        0.0,
        1.0
      ],
      "name": "Object_23"
    },
    {
      "name": "Object_24"
    },
    {
      "children": [
        26
      ],
      "matrix": [
        0.6676457716730977,
        29.59790995960899,
        -95.5171082850944,
        0.0,
        65.90964224954878,
        -71.96507831155222,
        -21.83914119253817,
        0.0,
        -75.20287964936797,
        -62.80916667115915,
        -19.988345320170513,
        0.0,
        -240.04164123535156,
        388.1775207519531,
        -100.54539489746094,
        1.0
      ],
      "name": "Light.001"
    },
    {
      "children": [
        27
      ],
      "matrix": [
        1.0,
        0.0,
        0.0,
        0.0,
        0.0,
        2.220446049250313e-16,
        1.0,
        0.0,
        0.0,
        -1.0,
        2.220446049250313e-16,
        0.0,
        0.0,
        0.0,
        0.0,
        1.0
      ],
      "name": "Object_26"
    },
    {
      "name": "Object_27"
    },
    {
      "children": [
        29
      ],
      "matrix": [
        -838.5749511718113,
        1.0269579526404562e-13,
        0.0003265531428117777,
        0.0,
        -0.00032655314281177677,
        6.331064765576738e-05,
        -838.574951171809,
        0.0,
        -2.475677217360626e-11,
        -838.5749511718725,
        -6.331064756266686e-05,
        0.0,
        -1.0604887736194446e-13,
        198.3011474609375,
        -535.3795776367188,
        1.0
      ],
      "name": "Area.001"
    },
    {
      "children": [
        30
      ],
      "matrix": [
        1.0,
        0.0,
        0.0,
        0.0,
        0.0,
        2.220446049250313e-16,
        1.0,
        0.0,
        0.0,
        -1.0,
        2.220446049250313e-16,
        0.0,
        0.0,
        0.0,
        0.0,
        1.0
      ],
      "name": "Object_29"
    },
    {
      "name": "Object_30"
    }
  ],
  "scene": 0,
  "scenes": [
    {
      "name": "Sketchfab_Scene",
      "nodes": [
        0
      ]
    }
  ]
}
